<mxfile host="app.diagrams.net" modified="2025-02-25T07:50:36.210Z" agent="Mozilla/5.0 (Macintosh; Intel Mac OS X 10_15_7) AppleWebKit/537.36 (KHTML, like Gecko) Chrome/133.0.0.0 Safari/537.36 Edg/133.0.0.0" version="22.1.18" etag="LDo_31t6r_9XrbEAkzHB" type="github">
  <diagram name="第 1 页" id="VeYTbmZ1KPMiu3xLBwy1">
    <mxGraphModel>
      <root>
        <mxCell id="0" />
        <mxCell id="1" parent="0" />
      </root>
    </mxGraphModel>
  </diagram>
</mxfile>
